<?xml version="1.0" encoding="UTF-8"?>
<!-- Generator: Adobe Illustrator 24.1.3, SVG Export Plug-In . SVG Version: 6.00 Build 0)  -->
<svg version="1.1" id="Layer_1" xmlns="http://www.w3.org/2000/svg" xmlns:xlink="http://www.w3.org/1999/xlink" x="0px" y="0px" viewBox="0 0 16 16" style="enable-background:new 0 0 16 16;" xml:space="preserve">
<style type="text/css">
	.st0{fill:#121212;}
	.st1{fill-rule:evenodd;clip-rule:evenodd;fill:#121212;}
</style>
<g>
	<path class="st0" d="M7.78,5.93v-1.1c-1.65,0-3,1.34-3,3s1.34,3,3,3v-1.1c-0.87,0-1.61-0.59-1.83-1.39h1.83v-1H5.96   C6.18,6.52,6.91,5.93,7.78,5.93z"/>
	<g>
		<line class="st1" x1="7.78" y1="12.38" x2="7.78" y2="12.31"/>
		<line class="st1" x1="7.78" y1="4.43" x2="7.78" y2="3.33"/>
		<path class="st1" d="M7.78,3.33v1.1c2.18,0,3.94,1.77,3.94,3.94c0,2.18-1.77,3.94-3.94,3.94v0.07c2.5,0,4.53-2.03,4.53-4.53    S10.29,3.33,7.78,3.33z"/>
	</g>
	<g>
		<path class="st0" d="M3.86,7.32c0-2.17,1.76-3.93,3.93-3.93V3.33c-2.5,0-4.53,2.03-4.53,4.53s2.03,4.53,4.53,4.53v-1.14    C5.62,11.25,3.86,9.49,3.86,7.32z"/>
		<line class="st0" x1="7.78" y1="3.33" x2="7.78" y2="3.39"/>
	</g>
	<g>
		<path class="st0" d="M7.78,0.71v2.24c0.01,0,0.02,0,0.03,0c3.32,0,6.01,2.69,6.01,6.01s-2.69,6.01-6.01,6.01    c-0.01,0-0.02,0-0.03,0V15c3.95,0,7.15-3.2,7.15-7.15S11.73,0.71,7.78,0.71z"/>
	</g>
	<g>
		<path class="st0" d="M1.81,6.79c0-3.31,2.67-5.99,5.97-6.01V0.71c-3.95,0-7.15,3.2-7.15,7.15S3.84,15,7.78,15v-2.2    C4.48,12.78,1.81,10.09,1.81,6.79z"/>
	</g>
</g>
</svg>